<svg width="30" height="40" fill="none" xmlns="http://www.w3.org/2000/svg"><path d="M29.181 12.008l.819-.545-2.575-5.314V.77H2.575v5.38L0 11.463s.997.66 1.087.715a7.846 7.846 0 00-.771 3.403v15.79c0 4.354 3.547 7.896 7.907 7.896h13.554c4.36 0 7.907-3.542 7.907-7.895v-15.79a7.845 7.845 0 00-.771-3.404c.09-.055.18-.11.268-.17zM2.932 10.591l1.48-3.055h21.175l1.48 3.055a4.97 4.97 0 01-4.663-.46l-.627-.417-.626.417a4.972 4.972 0 01-5.524 0L15 9.714l-.627.417a4.972 4.972 0 01-5.524 0l-.626-.417-.627.417a4.971 4.971 0 01-4.664.46zm1.902-7.567h20.332V5.28H4.834V3.024zM27.311 32.5H2.69a5.635 5.635 0 01-.114-1.128V18.965h24.85v12.407c0 .386-.04.763-.114 1.128zm-5.534 4.511H8.223a5.645 5.645 0 01-4.515-2.256h22.584a5.645 5.645 0 01-4.515 2.256zm5.648-21.43v1.128H2.575v-1.128c0-.895.209-1.762.608-2.547a7.221 7.221 0 005.04-.652 7.222 7.222 0 006.777 0 7.222 7.222 0 006.777 0 7.225 7.225 0 005.04.652 5.6 5.6 0 01.608 2.547z" fill="#656565"/></svg>